<svg xmlns="http://www.w3.org/2000/svg" width="120" height="120" viewBox="0 0 120 120" fill="none"><path d="M96.0521 24.3277C96.0971 24.4177 96.0521 24.5077 95.9621 24.5977L94.2971 25.6777C94.078 25.8268 93.9178 26.0476 93.8438 26.302C93.7699 26.5565 93.787 26.8288 93.8921 27.0721L94.6571 28.9171C94.6714 28.9624 94.6748 29.0105 94.667 29.0575C94.6592 29.1044 94.6404 29.1488 94.6121 29.1871C94.5705 29.2092 94.5242 29.2208 94.4771 29.2208C94.43 29.2208 94.3836 29.2092 94.3421 29.1871L92.7671 27.9271C92.5537 27.7592 92.2881 27.6717 92.0167 27.6799C91.7453 27.6881 91.4855 27.7916 91.2827 27.9721L89.7527 29.2771C89.6627 29.3221 89.5727 29.3671 89.4827 29.2771C89.4588 29.2655 89.4375 29.2492 89.4201 29.2292C89.4027 29.2092 89.3895 29.1859 89.3813 29.1607C89.3647 29.11 89.3687 29.0548 89.3927 29.0071L90.1127 27.1171C90.2061 26.8702 90.2075 26.5979 90.1166 26.3501C90.0257 26.1023 89.8486 25.8955 89.6177 25.7677L87.9077 24.7327C87.6971 24.6271 87.8273 24.3727 88.0427 24.3727L90.0227 24.4627C90.2806 24.4742 90.5343 24.3949 90.7399 24.2387C90.9454 24.0825 91.0897 23.8592 91.1477 23.6077L91.5977 21.6727C91.5977 21.4681 91.8977 21.4225 92.0027 21.6277C92.5211 23.4877 92.5541 23.9299 92.9921 24.1927C93.2177 24.3409 93.4889 24.4051 93.7571 24.3727L95.7371 24.2377C95.9171 24.1927 96.0071 24.2401 96.0521 24.3277Z" fill="#190D39"></path><path d="M73.5098 6.1945L71.8454 7.2745C71.6262 7.42365 71.4658 7.64454 71.3919 7.89915C71.318 8.15375 71.3351 8.42616 71.4404 8.6695L72.2048 10.5145C72.2249 10.5626 72.227 10.6164 72.2105 10.6659C72.1941 10.7155 72.1603 10.7574 72.1154 10.7839C71.9696 10.8571 71.9582 10.7935 70.3154 9.4795C70.1106 9.31143 69.8517 9.22336 69.5869 9.23163C69.3221 9.23991 69.0693 9.34397 68.8754 9.5245L67.3454 10.8289C67.2554 10.8739 67.1654 10.9189 67.0754 10.8289C67.0542 10.8207 67.035 10.8083 67.0188 10.7924C67.0026 10.7765 66.9898 10.7575 66.9812 10.7365C66.973 10.7153 66.9692 10.6927 66.97 10.67C66.9709 10.6473 66.9763 10.625 66.986 10.6045L67.706 8.7145C67.7953 8.46042 67.7949 8.18341 67.7048 7.92958C67.6148 7.67576 67.4405 7.46045 67.211 7.3195L65.5016 6.2845C65.291 6.1795 65.4206 5.9245 65.6366 5.9245L67.6166 6.0145C67.886 6.02461 68.1504 5.94017 68.3641 5.7758C68.5778 5.61142 68.7272 5.37748 68.7866 5.1145L69.2366 3.1795C69.2366 2.9749 69.5366 2.9293 69.6416 3.1345C70.16 4.9945 70.193 5.4361 70.6316 5.6989C70.862 5.8405 71.126 5.9185 71.3966 5.9239L73.3766 5.7889C73.5272 5.7895 73.7492 6.0751 73.5098 6.1945Z" fill="#190D39"></path><path d="M40.8886 21.6726C40.9336 21.7626 40.8886 21.8526 40.7986 21.9426L39.1336 23.0226C39.0177 23.0892 38.9176 23.1799 38.84 23.2886C38.7623 23.3973 38.709 23.5215 38.6836 23.6526C38.6345 23.7756 38.6131 23.9079 38.6209 24.0401C38.6287 24.1723 38.6654 24.3012 38.7285 24.4176L39.4936 26.262C39.5386 26.352 39.4935 26.442 39.4035 26.532C39.362 26.5542 39.3156 26.5658 39.2686 26.5658C39.2215 26.5658 39.1751 26.5542 39.1336 26.532L37.5586 25.272C37.3594 25.0973 37.1035 25.001 36.8386 25.001C36.5736 25.001 36.3177 25.0973 36.1186 25.272L34.5892 26.58C34.4992 26.625 34.4092 26.67 34.3192 26.58C34.2955 26.5682 34.2744 26.5519 34.2571 26.5319C34.2397 26.5119 34.2265 26.4888 34.2181 26.4637C34.2098 26.4386 34.2064 26.4121 34.2083 26.3858C34.2102 26.3594 34.2173 26.3336 34.2292 26.31L34.9492 24.4206C35.042 24.1736 35.0431 23.9015 34.9523 23.6537C34.8614 23.406 34.6847 23.199 34.4542 23.0706L32.7442 22.0356C32.695 22.0016 32.6592 21.9517 32.6427 21.8942C32.6263 21.8368 32.6304 21.7754 32.6542 21.7206C32.7038 21.6732 32.7665 21.6419 32.8342 21.6306L34.8142 21.7206C35.0781 21.7358 35.3391 21.6589 35.5525 21.5029C35.7659 21.347 35.9185 21.1217 35.9842 20.8656L36.4336 18.9312C36.4336 18.7266 36.7336 18.681 36.8386 18.8862C37.3576 20.7462 37.3906 21.1878 37.8286 21.4506C38.0542 21.5988 38.3254 21.663 38.5936 21.6306L40.5736 21.4956C40.8004 21.54 40.8886 21.5826 40.8886 21.6726Z" fill="#190D39"></path><path d="M86.1534 13.8001C86.1188 13.8003 86.0846 13.7924 86.0536 13.7772C86.0225 13.7621 85.9953 13.7399 85.9742 13.7125C85.9532 13.685 85.9387 13.6531 85.932 13.6192C85.9253 13.5853 85.9265 13.5502 85.9356 13.5169C85.9475 13.4723 85.9729 13.4325 86.0082 13.4029C87.0126 12.5593 90.1512 10.0255 90.1512 10.0255C90.1978 9.99057 90.2561 9.97511 90.3139 9.98233C90.3717 9.98955 90.4244 10.0189 90.461 10.0642C90.4976 10.1095 90.5152 10.1672 90.5101 10.2252C90.5051 10.2832 90.4777 10.337 90.4338 10.3753C85.9728 13.9765 86.2932 13.8001 86.1534 13.8001Z" fill="#190D39"></path><path d="M89.6118 14.8345C89.6064 14.6191 89.6064 14.6191 91.7604 13.9651C92.805 13.6483 93.9882 13.2889 94.485 13.0945C94.5395 13.0779 94.5982 13.0825 94.6495 13.1074C94.7007 13.1322 94.7407 13.1754 94.7615 13.2285C94.7822 13.2815 94.7822 13.3404 94.7615 13.3934C94.7407 13.4464 94.7007 13.4897 94.6494 13.5145C93.765 13.8607 90.4656 14.8033 90.0018 14.9941C89.9777 15.0172 89.9489 15.0347 89.9174 15.0456C89.8859 15.0565 89.8524 15.0604 89.8192 15.0571C89.786 15.0538 89.754 15.0433 89.7252 15.0264C89.6965 15.0096 89.6717 14.9867 89.6526 14.9593C89.6273 14.9225 89.6131 14.8792 89.6118 14.8345Z" fill="#190D39"></path><path d="M45.912 8.69109C45.3762 7.75329 43.5768 4.85109 43.3866 4.60149C43.3545 4.57033 43.3325 4.53033 43.3232 4.48658C43.314 4.44283 43.318 4.39732 43.3347 4.35585C43.3515 4.31439 43.3802 4.27885 43.4172 4.25378C43.4542 4.22871 43.4979 4.21524 43.5426 4.21509C43.8426 4.21509 46.2786 8.42529 46.3026 8.46789C46.3305 8.51957 46.3371 8.58014 46.321 8.63663C46.3049 8.69313 46.2673 8.74107 46.2163 8.77022C46.1653 8.79937 46.1049 8.80741 46.048 8.79262C45.9912 8.77783 45.9423 8.74139 45.912 8.69109Z" fill="#190D39"></path><path d="M42.2394 9.0745C42.1392 9.0745 42.2394 9.0745 40.5726 8.2597C39.9715 8.00171 39.3924 7.6953 38.841 7.3435C38.8009 7.30116 38.7787 7.24489 38.7793 7.18657C38.7799 7.12824 38.8031 7.07241 38.844 7.03085C38.8849 6.9893 38.9404 6.96526 38.9987 6.96381C39.057 6.96237 39.1136 6.98363 39.1566 7.0231C39.3366 7.1731 41.6868 8.2831 42.3486 8.6527C42.3922 8.67688 42.4266 8.71487 42.4462 8.7607C42.4659 8.80653 42.4698 8.85761 42.4573 8.9059C42.4448 8.95418 42.4166 8.99695 42.3772 9.02747C42.3377 9.05799 42.2893 9.07453 42.2394 9.0745Z" fill="#190D39"></path><path d="M77.6943 50.5146C75.3867 47.2362 78.3513 41.7852 76.2543 37.5108C75.9393 36.8814 75.1293 35.3508 74.2743 34.9908L74.0493 34.8108C76.6143 32.0658 77.1543 26.9364 75.1743 23.6508C74.4093 22.4358 73.1943 21.9858 72.2499 20.9508C70.9899 19.5558 70.2249 17.8908 68.6499 16.7664C64.6005 13.9314 58.7061 14.5164 54.7017 17.1264C50.7873 19.6464 47.8173 23.9208 47.4123 28.6464C47.2323 30.6708 47.5023 32.9208 48.9873 34.4064C49.8273 35.0604 50.7915 35.5344 51.8217 35.8014C51.8217 35.571 51.7017 33.2406 51.6903 32.9862C53.9289 30.5304 55.2405 26.622 59.6517 24.06C60.7317 23.43 62.1261 22.665 63.4317 22.71C63.5667 23.565 64.0617 25.23 64.2417 25.8594C65.0637 28.7394 66.8631 31.5186 69.7761 32.2038C70.1317 31.8342 70.6175 31.6179 71.1301 31.6011C71.6426 31.5843 72.1416 31.7683 72.5205 32.1138C73.6407 33.057 73.4979 35.244 72.8355 36.5688C72.6503 36.9319 72.3832 37.2468 72.0553 37.4888C71.7274 37.7309 71.3476 37.8933 70.9461 37.9632V38.0082C68.5299 41.6082 67.4505 44.6682 68.9211 48.492C69.4924 49.9933 70.4943 51.2924 71.8011 52.2264C72.3346 52.5803 72.961 52.7682 73.6011 52.7664C74.7711 52.7664 74.6811 51.5964 75.4911 51.417C76.1103 51.237 76.8159 53.0814 79.1355 53.0814C79.4055 53.0814 80.0355 53.0364 80.1255 52.8114C80.3643 52.2492 78.9279 52.266 77.6943 50.5146Z" fill="#190D39"></path><path d="M64.8247 37.2865C65.0079 37.2865 65.1893 37.2504 65.3585 37.1803C65.5278 37.1102 65.6816 37.0074 65.8111 36.8779C65.9406 36.7483 66.0434 36.5946 66.1135 36.4253C66.1836 36.2561 66.2197 36.0747 66.2197 35.8915C66.2197 35.7083 66.1836 35.5269 66.1135 35.3576C66.0434 35.1884 65.9406 35.0346 65.8111 34.905C65.6816 34.7755 65.5278 34.6728 65.3585 34.6026C65.1893 34.5325 65.0079 34.4965 64.8247 34.4965C64.4547 34.4965 64.0999 34.6434 63.8383 34.905C63.5767 35.1667 63.4297 35.5215 63.4297 35.8915C63.4297 36.2614 63.5767 36.6163 63.8383 36.8779C64.0999 37.1395 64.4547 37.2865 64.8247 37.2865Z" fill="#190D39"></path><path d="M54.2973 37.0164C54.4805 37.0164 54.6619 36.9804 54.8312 36.9103C55.0004 36.8401 55.1542 36.7374 55.2838 36.6079C55.4133 36.4783 55.5161 36.3245 55.5862 36.1553C55.6563 35.986 55.6923 35.8046 55.6923 35.6214C55.6923 35.4382 55.6563 35.2568 55.5862 35.0876C55.5161 34.9183 55.4133 34.7646 55.2838 34.635C55.1542 34.5055 55.0004 34.4027 54.8312 34.3326C54.6619 34.2625 54.4805 34.2264 54.2973 34.2264C53.9274 34.2264 53.5725 34.3734 53.3109 34.635C53.0493 34.8966 52.9023 35.2515 52.9023 35.6214C52.9023 35.9914 53.0493 36.3462 53.3109 36.6079C53.5725 36.8695 53.9274 37.0164 54.2973 37.0164Z" fill="#190D39"></path><path d="M69.9329 35.5201C70.0775 35.1462 70.3027 34.8087 70.5926 34.5317C70.8824 34.2547 71.2298 34.045 71.6099 33.9175C71.6385 33.9104 71.6684 33.909 71.6976 33.9134C71.7268 33.9178 71.7549 33.9279 71.7802 33.9431C71.8055 33.9583 71.8276 33.9784 71.8452 34.0022C71.8627 34.026 71.8754 34.053 71.8826 34.0816C71.8897 34.1103 71.8911 34.1401 71.8867 34.1693C71.8823 34.1986 71.8722 34.2267 71.857 34.252C71.8418 34.2773 71.8217 34.2994 71.7979 34.3169C71.7741 34.3345 71.7471 34.3472 71.7185 34.3543C71.1659 34.4923 70.7393 34.9141 70.3355 35.7211C70.3152 35.7603 70.2838 35.7926 70.2453 35.8141C70.2068 35.8357 70.1629 35.8454 70.1189 35.8422C70.0749 35.8391 70.0328 35.823 69.9978 35.7962C69.9629 35.7693 69.9365 35.7328 69.9221 35.6911C69.903 35.6349 69.9069 35.5735 69.9329 35.5201Z" fill="#190D39"></path><path d="M18.9756 95.0593C18.9756 94.7701 19.3476 94.5361 19.6608 94.3321C20.4174 93.7817 21.2995 93.4292 22.227 93.3067C22.2861 93.2978 22.3462 93.3128 22.3942 93.3483C22.4422 93.3838 22.4741 93.4369 22.4829 93.496C22.4918 93.555 22.4768 93.6151 22.4413 93.6631C22.4058 93.7111 22.3527 93.743 22.2936 93.7519C21.4107 93.8725 20.5722 94.2132 19.8552 94.7425C19.5318 94.9537 19.44 95.0479 19.4208 95.0905C19.4175 95.1504 19.3905 95.2065 19.3458 95.2465C19.3237 95.2663 19.2978 95.2815 19.2697 95.2912C19.2416 95.3008 19.2118 95.3048 19.1821 95.3027C19.1525 95.3006 19.1235 95.2926 19.097 95.2791C19.0705 95.2657 19.047 95.247 19.0278 95.2243C19.0085 95.2017 18.9939 95.1755 18.9849 95.1471C18.9759 95.1188 18.9728 95.0889 18.9756 95.0593Z" fill="#190D39"></path><path d="M101.362 96.5143C100.649 95.7711 99.726 95.2626 98.7167 95.0563C98.6601 95.0444 98.6103 95.0113 98.5773 94.9637C98.5444 94.9162 98.531 94.8579 98.5397 94.8007C98.5489 94.7436 98.5797 94.6922 98.6257 94.6571C98.6717 94.6221 98.7294 94.606 98.7869 94.6123C99.6715 94.7719 100.499 95.1602 101.187 95.7385C102.468 96.5773 101.395 97.0117 101.362 96.5143Z" fill="#190D39"></path><path d="M112.358 96.5281C111.964 95.8213 110.749 95.7481 110.014 95.7037C108.399 95.5483 106.795 95.2849 105.214 94.9153C104.599 94.8455 104.021 94.5818 103.565 94.1623C103.414 93.9529 104.485 93.5179 104.931 93.1093C106.431 91.7113 106.522 88.2979 104.354 87.7813C103.383 87.4585 102.901 88.7287 103.417 89.5543C103.549 89.8374 103.602 90.1506 103.572 90.4614C103.542 90.7722 103.429 91.0693 103.246 91.3219C102.545 92.4475 101.037 92.6941 100.41 91.4737C100.234 91.1274 100.14 90.7455 100.135 90.3573C100.13 89.9691 100.215 89.5849 100.382 89.2345C101.042 88.1179 102.55 88.9609 102.94 88.3447C103.094 88.1017 103.014 87.7921 102.811 87.3397C102.647 87.0741 102.424 86.8499 102.16 86.6845C100.18 85.3333 98.0413 86.8831 97.8937 89.2405C97.9135 89.8555 97.9939 90.4669 98.1337 91.0657C98.1073 91.0723 97.9429 91.0903 97.2385 90.7219C96.1818 90.1247 95.1746 89.444 94.2265 88.6861C89.6635 84.3781 86.0629 74.9077 84.2539 68.8993C82.5739 63.1525 81.5402 57.5641 78.2839 52.8613C78.2671 52.837 78.2457 52.8162 78.2208 52.8002C78.196 52.7842 78.1682 52.7732 78.1392 52.7679C78.1101 52.7626 78.0802 52.7631 78.0513 52.7693C78.0224 52.7756 77.9951 52.7875 77.9707 52.8043C77.9464 52.8211 77.9257 52.8425 77.9097 52.8674C77.8936 52.8922 77.8827 52.92 77.8774 52.9491C77.8721 52.9781 77.8726 53.008 77.8788 53.0369C77.8851 53.0658 77.8969 53.0932 77.9137 53.1175C82.8517 60.2479 81.8551 67.2049 88.5613 81.2575C89.8903 83.9161 91.8709 87.0841 93.9343 89.0293C94.6063 89.5483 97.7143 91.9411 98.3905 91.4335C98.8225 91.1089 98.2825 90.2497 98.3461 89.2699C98.4697 87.2899 100.206 85.8949 101.92 87.0643C102.118 87.1879 102.288 87.3529 102.415 87.5479C102.613 87.9925 102.577 88.0831 102.563 88.1059C102.421 88.3303 100.752 87.7339 99.9967 89.0059C99.7906 89.4216 99.6847 89.8799 99.6874 90.3439C99.6901 90.808 99.8014 91.2649 100.012 91.6783C100.81 93.2305 102.748 92.9755 103.631 91.5583C103.859 91.2343 103.995 90.8548 104.025 90.4597C104.055 90.0647 103.978 89.6689 103.801 89.3143C103.516 88.8577 103.663 88.0261 104.233 88.2127C106.062 88.6501 105.849 91.6417 104.629 92.7775C104.119 93.2443 102.669 93.6889 103.206 94.4281C103.653 95.0281 104.511 95.2081 105.178 95.3671C106.763 95.7314 108.37 95.9933 109.989 96.1513C110.589 96.1867 111.69 96.2527 111.966 96.7459C112.167 97.1059 111.708 97.4821 111.347 97.6459C110.359 98.0947 109.174 97.7869 108.347 97.5439C107.187 97.2013 105.674 96.2407 105.287 96.5431C105.251 96.5781 105.224 96.6207 105.207 96.6678C105.19 96.7148 105.183 96.7651 105.188 96.8149C105.235 97.0495 105.534 97.1959 106.713 97.5625C107.417 97.7815 106.906 97.6615 108.093 98.0911C108.926 98.3911 109.964 98.7691 110.245 99.3877C110.358 99.6211 110.275 99.7087 110.24 99.7477C109.97 100.036 108.629 100.214 107.8 99.7561C106.55 99.0649 104.5 98.3611 103.431 97.5361C103.384 97.4997 103.324 97.4837 103.265 97.4914C103.206 97.4992 103.152 97.5301 103.116 97.5775C103.079 97.6248 103.063 97.6847 103.071 97.7439C103.079 97.803 103.11 97.8567 103.157 97.8931C104.368 98.8249 106.765 99.6091 107.893 100.331C108.392 100.663 108.388 100.811 108.387 100.827C108.381 100.874 108.281 100.984 107.943 101.102C107.411 101.292 106.198 100.742 105.647 100.602C98.0143 98.6971 86.4937 91.4269 81.3427 83.8621C78.0991 79.0885 76.4491 70.2655 73.7497 65.3425C73.7209 65.2903 73.6726 65.2517 73.6154 65.2351C73.5581 65.2185 73.4967 65.2251 73.4443 65.2537C73.4183 65.2677 73.3953 65.2868 73.3767 65.3098C73.3581 65.3328 73.3442 65.3593 73.3359 65.3877C73.3276 65.4161 73.325 65.4459 73.3283 65.4753C73.3315 65.5047 73.3406 65.5332 73.3549 65.5591C74.084 66.9558 74.7096 68.4041 75.2269 69.8923C75.1471 70.2073 75.0433 70.5301 74.9617 70.8025C73.6639 70.3039 72.9853 69.2545 72.2155 67.9897C69.7099 63.8323 69.9187 57.6535 71.5489 53.4031C71.7457 53.0311 71.9149 52.6453 72.0559 52.2487C72.0694 52.1937 72.0616 52.1356 72.0343 52.086C72.0069 52.0365 71.9618 51.999 71.9081 51.9811C71.8544 51.9632 71.7959 51.9662 71.7443 51.9894C71.6926 52.0126 71.6516 52.0544 71.6293 52.1065C71.4922 52.4892 71.328 52.8618 71.1379 53.2213C69.4999 57.4813 69.1789 63.8233 71.8303 68.2213C72.5713 69.4387 73.4665 70.8127 74.8345 71.2357C73.5856 75.7745 72.8981 80.4494 72.7873 85.1557C72.7873 90.1099 73.3333 90.8359 72.7471 91.7191C71.8957 92.7829 69.8743 93.4591 68.5771 93.8959C64.5025 95.2759 59.4877 94.9387 53.6911 92.9515C51.0439 92.0695 48.0079 91.4647 48.1057 88.8313C48.1567 87.4699 49.9453 82.3903 49.7953 77.9497C49.7041 75.0247 48.2353 72.5797 47.2153 70.0441C44.5483 63.3763 48.2065 59.4469 51.3913 51.9505C51.9922 50.4537 52.6756 48.9915 53.4385 47.5705C54.1172 47.3507 54.8067 47.166 55.5043 47.0173C55.1979 47.9033 55.0188 48.8283 54.9721 49.7647C54.5089 53.9371 55.4017 58.7599 59.5987 59.8201C60.2143 59.9641 60.8491 60.0109 61.4791 59.9587C66.6421 59.2717 68.6341 53.6701 69.1873 48.5113C69.1905 48.4819 69.1878 48.4522 69.1795 48.4238C69.1712 48.3954 69.1573 48.369 69.1388 48.346C69.1202 48.323 69.0973 48.3039 69.0714 48.2897C69.0454 48.2755 69.0169 48.2666 68.9875 48.2635C68.9582 48.2603 68.9284 48.263 68.9001 48.2713C68.8717 48.2797 68.8453 48.2935 68.8223 48.3121C68.7993 48.3306 68.7801 48.3535 68.766 48.3795C68.7518 48.4054 68.7429 48.4339 68.7397 48.4633C68.2165 53.3629 66.3397 58.8547 61.4335 59.5117C60.8542 59.562 60.2705 59.5184 59.7049 59.3827C55.7959 58.3951 54.9745 53.8027 55.4191 49.8145C55.5193 48.9145 55.6069 47.6701 56.0695 46.8979C56.5813 46.8082 57.095 46.7303 57.6103 46.6645C57.5473 47.5489 57.4861 48.4111 57.3571 49.3567C57.351 49.4149 57.3678 49.4733 57.4039 49.5193C57.4401 49.5654 57.4928 49.5955 57.5509 49.6034C57.6089 49.6112 57.6677 49.596 57.7148 49.5612C57.7619 49.5263 57.7935 49.4745 57.8029 49.4167C58.0117 47.8831 58.2229 45.9271 57.9445 44.5723C60.8767 45.3199 64.3819 44.9131 66.7993 42.8047C66.6109 45.8119 66.2365 47.1157 66.4447 49.4047C66.449 49.4489 66.4662 49.4909 66.4942 49.5254C66.5223 49.5598 66.5599 49.5853 66.6023 49.5985C66.6447 49.6117 66.6901 49.612 66.7327 49.5996C66.7753 49.5871 66.8133 49.5623 66.8419 49.5283C66.8799 49.4823 66.8982 49.4232 66.8929 49.3639C66.8058 48.4374 66.8115 47.5046 66.9097 46.5793C67.4365 46.6039 67.9597 46.6843 68.4697 46.8193C68.5237 46.8192 68.5758 46.7998 68.6167 46.7645C68.6575 46.7292 68.6843 46.6804 68.6921 46.627C68.7 46.5736 68.6884 46.5192 68.6595 46.4737C68.6305 46.4281 68.5862 46.3945 68.5345 46.3789C68.0173 46.247 67.4888 46.1642 66.9559 46.1317C67.0999 44.3413 67.3039 42.7309 67.2493 42.3709C68.0442 41.5748 68.6689 40.6254 69.0853 39.5803C69.7951 37.8571 69.8653 38.2003 71.0713 38.1775C71.5106 38.1091 71.9269 37.9355 72.2846 37.6715C72.6423 37.4075 72.9309 37.0609 73.1257 36.6613C73.3345 36.2815 73.4761 35.8693 73.5457 35.4415C74.2741 32.2855 71.8567 30.2761 69.7153 32.0257C69.0295 32.5708 68.5327 33.3178 68.2951 34.1611C68.2792 34.2185 68.2868 34.2799 68.3162 34.3318C68.3455 34.3837 68.3943 34.4218 68.4517 34.4377C68.5092 34.4536 68.5706 34.446 68.6225 34.4167C68.6743 34.3873 68.7124 34.3385 68.7283 34.2811C68.9425 33.5281 69.3871 32.8611 69.9997 32.3737C71.7619 30.9337 73.7497 32.5441 73.1029 35.3659C73.0376 35.7512 72.9073 36.1227 72.7177 36.4645C72.5582 36.7947 72.3218 37.082 72.0285 37.3022C71.7352 37.5225 71.3934 37.6693 71.0317 37.7305C69.7483 37.7305 69.4639 37.4719 68.6665 39.4105C68.2453 40.4676 67.6011 41.4215 66.7777 42.2071C64.5697 44.4151 60.9031 44.9233 57.8563 44.0827C56.8951 43.8435 55.991 43.4156 55.1966 42.8239C54.4022 42.2321 53.7334 41.4883 53.2291 40.6357C52.0891 38.6275 52.1221 35.2105 51.9985 32.8603C51.997 32.8308 51.9896 32.8019 51.9768 32.7752C51.9641 32.7485 51.9462 32.7247 51.9242 32.7049C51.9023 32.6851 51.8766 32.6699 51.8487 32.6601C51.8209 32.6502 51.7914 32.646 51.7618 32.6476C51.7323 32.6491 51.7034 32.6565 51.6768 32.6693C51.6501 32.682 51.6262 32.6999 51.6065 32.7219C51.5867 32.7439 51.5715 32.7695 51.5617 32.7974C51.5518 32.8252 51.5476 32.8548 51.5491 32.8843C51.6781 35.3299 51.6469 38.7559 52.8397 40.8607C53.8665 42.5979 55.517 43.8783 57.4549 44.4409C57.5911 45.0187 57.6517 45.6115 57.6349 46.2049C56.9965 46.2901 56.3389 46.3801 55.6819 46.5115C54.7867 46.6885 53.9059 46.9315 53.0461 47.2393C45.0517 50.1085 42.5809 56.8651 39.9061 64.8241C38.2359 70.155 35.9949 75.2899 33.2221 80.1397C32.1644 81.8949 30.9813 83.5714 29.6821 85.1563C28.9983 86.0346 28.2167 86.8321 27.3523 87.5335C26.3038 88.2684 25.2019 88.9242 24.0559 89.4955C23.7653 89.669 23.4416 89.7798 23.1055 89.8207C23.0299 89.6359 23.4097 88.8139 23.3827 87.9865C23.3329 85.5979 21.1195 84.0481 19.0075 85.2697C18.7085 85.409 18.46 85.6377 18.2963 85.9242C18.1326 86.2107 18.0619 86.5409 18.0937 86.8693C18.4207 87.5893 20.1337 86.7085 20.8039 87.9241C21.3727 88.8997 20.8219 90.8383 19.4971 90.9157C17.8459 91.0357 16.8793 89.0491 17.5363 88.1215C17.6695 87.9246 17.753 87.6985 17.7797 87.4623C17.8065 87.2262 17.7757 86.9871 17.6899 86.7655C17.5949 86.589 17.4462 86.4473 17.2653 86.361C17.0844 86.2747 16.8807 86.2483 16.6837 86.2855C14.3641 86.6605 14.2609 90.0871 15.7993 91.5709C16.2541 92.0089 17.2393 92.4313 17.2321 92.6551C16.6973 93.0709 16.0559 93.3271 15.3817 93.3943C10.2505 94.3837 8.55013 93.5917 7.80733 94.7065C7.38733 95.3347 7.93153 95.9515 8.61733 96.2941C9.16834 96.5454 9.77261 96.6577 10.3771 96.6211C10.0014 96.7909 9.68414 97.0679 9.46513 97.4173C8.90533 98.4289 10.2397 98.8099 11.4199 98.7829C11.3684 98.8362 11.3278 98.8991 11.3007 98.9681C11.2735 99.0371 11.2602 99.1107 11.2615 99.1849C11.2837 99.5395 11.6989 99.7375 12.0133 99.8575C12.6663 99.9601 13.3347 99.894 13.9549 99.6655C15.5641 99.2485 16.5823 99.4375 21.9349 97.1551C38.6749 90.0151 41.8489 80.5999 46.8619 70.3771C49.1695 75.9931 50.2927 76.3633 48.3937 85.3609C47.8963 87.7159 47.3947 88.1851 47.8273 90.0943C48.5323 92.0203 51.7573 92.7835 53.5453 93.3793C58.3777 95.0365 63.8587 95.9701 68.7199 94.3243C70.1323 93.8443 72.1723 93.1573 73.1077 91.9843C73.8277 90.9013 73.2355 90.1429 73.2355 85.1551C73.3502 80.2316 74.1067 75.3442 75.4861 70.6165C77.1193 75.2281 78.6559 80.7073 80.9689 84.1117C86.1973 91.7917 97.8025 99.1009 105.537 101.032C106.12 101.177 107.371 101.777 108.091 101.52C108.751 101.288 109.018 100.915 108.707 100.463C109.84 100.542 111.141 100.211 110.651 99.1897C110.451 98.8074 110.136 98.4972 109.751 98.3023C111.754 98.4937 112.803 97.3255 112.358 96.5281ZM34.3501 89.0401C30.3443 92.4951 25.7717 95.2319 20.8339 97.1299C18.8342 98.0228 16.7346 98.6729 14.5801 99.0661C13.8703 99.1813 12.6955 99.6259 12.1723 99.4387C11.7469 99.2767 11.7139 99.1603 11.7139 99.1603C11.6887 98.6515 15.6781 97.6519 17.2063 96.6895C17.2443 96.6659 17.2743 96.6316 17.2926 96.5909C17.3109 96.5502 17.3167 96.5049 17.3091 96.461C17.3016 96.417 17.2811 96.3762 17.2503 96.3439C17.2195 96.3116 17.1797 96.2893 17.1361 96.2797C17.1073 96.2731 17.0775 96.2722 17.0484 96.2772C17.0192 96.2821 16.9914 96.2928 16.9663 96.3085C16.0222 96.8167 15.0335 97.2372 14.0125 97.5649C13.1766 97.9291 12.3026 98.199 11.4067 98.3695C10.6207 98.4685 9.54073 98.2183 9.86113 97.6387C10.1815 97.0591 11.3041 96.7075 12.2161 96.4315C13.4917 96.0457 12.9205 96.1573 13.7389 95.9353C14.9221 95.6149 15.2317 95.4859 15.3151 95.2753C15.3306 95.2285 15.3341 95.1785 15.3253 95.13C15.3165 95.0814 15.2957 95.0359 15.2647 94.9975C15.0703 94.7959 14.6521 94.9555 13.4545 95.3851C11.9929 95.9101 10.2043 96.5539 8.81773 95.8903C8.44273 95.7031 7.93933 95.3239 8.18413 94.9567C8.55973 94.3933 9.95053 94.4689 10.5739 94.4263C12.2341 94.317 13.887 94.1167 15.5251 93.8263C16.2758 93.7412 16.9856 93.4397 17.5681 92.9587C17.6181 92.9079 17.6557 92.8463 17.6782 92.7787C17.7006 92.7111 17.7073 92.6393 17.6977 92.5687C17.6221 92.0557 16.6135 91.7287 16.1143 91.2487C14.8471 90.0265 14.8237 87.0409 16.7575 86.7313C16.8563 86.7106 16.959 86.7202 17.0523 86.7589C17.1455 86.7975 17.2249 86.8634 17.2801 86.9479C17.3354 87.0983 17.3544 87.2597 17.3356 87.4189C17.3169 87.5781 17.2609 87.7306 17.1721 87.8641C16.2853 89.1157 17.5183 91.5127 19.5289 91.3681C21.2011 91.2691 21.9289 88.9555 21.1975 87.7051C20.4673 86.3815 18.7003 86.8939 18.5143 86.7079C18.5071 86.6863 18.4819 86.5597 18.6679 86.1841C18.8002 85.963 18.9927 85.7843 19.2229 85.6687C21.0871 84.5923 22.8937 85.9957 22.9351 88.0009C22.9663 88.9555 22.3879 89.8009 22.8067 90.1537C23.4865 90.7219 26.8867 88.3897 27.6199 87.8995C28.5171 87.1746 29.3282 86.3492 30.0373 85.4395C31.3501 83.8376 32.5454 82.143 33.6139 80.3689C36.3981 75.4918 38.651 70.33 40.3339 64.9723C42.9037 57.3325 45.2425 50.7589 52.8103 47.8123C51.6031 50.0431 50.7439 52.5277 49.6393 54.7801C46.9993 60.1861 44.5303 64.0801 46.6303 69.7801C42.9001 77.3929 40.7695 83.2627 34.3501 89.0401Z" fill="#190D39"></path><path d="M98.616 97.9837C95.3908 96.3581 92.3184 94.4456 89.436 92.2693C84.2946 89.9695 77.592 90.4693 73.236 90.4693C73.2937 90.9566 73.1825 91.449 72.921 91.8643C72.021 92.9887 69.9516 93.6643 68.6466 94.1137C63.8322 95.7337 58.3428 94.7887 53.6184 93.1687C51.9984 92.5837 48.714 91.8643 48.0384 90.0193C47.9506 89.805 47.9047 89.5759 47.9034 89.3443C47.2032 89.1403 47.0406 89.0653 43.359 88.7143C40.6146 88.5343 37.2846 88.2643 34.5852 89.1643C28.2984 94.6939 22.5012 96.6043 20.457 97.5331C20.814 98.4865 20.7 99.6421 21.8064 102.348C24.2208 108.288 31.5936 108.433 41.5848 109.421C40.8846 109.625 39.7182 110.832 38.82 111.183C36.9228 111.952 34.9338 112.25 33.0042 113.123C32.4072 113.404 30.5904 114.259 30.8094 115.573C31.0818 117.013 33.156 117.225 34.6788 117.225C38.2272 117.225 41.7828 116.589 45.051 116.205C50.7636 115.509 48.909 116.05 55.2828 114.722C58.995 113.971 62.7306 113.147 66.4428 112.393C74.3268 113.341 73.1982 112.913 82.6842 114.346C89.1042 115.316 89.0934 115.21 90.5106 115.399C91.779 115.567 94.002 115.85 94.5018 114.668C95.1156 113.072 90.9912 111.262 89.6472 110.552C93.2755 109.424 96.3265 106.936 98.1612 103.608C99.795 100.351 98.8038 98.0779 98.616 97.9837ZM47.8638 115.444C40.695 116.188 31.728 117.989 31.2558 115.495C31.0938 114.522 32.679 113.776 33.1968 113.533C35.0568 112.693 37.0968 112.368 38.9904 111.602C40.1112 111.164 39.7704 110.869 42.5376 109.517C43.6632 109.631 44.8938 109.757 46.2492 109.909C46.3746 110.089 47.994 112.409 49.2438 114.028C49.5006 114.443 49.7916 114.835 50.1144 115.2C49.32 115.292 48.5868 115.368 47.8638 115.443V115.444ZM93.3384 113.227C93.5682 113.428 94.2666 114.039 94.0896 114.5C93.6828 115.46 91.0992 115.001 90.1806 114.904C85.8312 114.455 81.4884 113.644 77.136 113.104C76.5186 113.029 71.2932 112.414 70.6872 112.455C71.0058 111.435 72.3006 107.251 72.5562 106.087C76.0578 106.856 77.5902 104.629 79.9404 105.088C81.9396 105.523 82.9884 107.242 84.5748 108.421C85.9956 109.52 87.8214 110.116 89.3748 110.916C90.7122 111.629 92.1948 112.214 93.3384 113.227V113.227Z" fill="#190D39"></path><path d="M52.4061 29.6837C52.8183 29.1301 53.3999 28.7261 54.0626 28.5329C54.7253 28.3397 55.4329 28.368 56.0781 28.6133C56.1347 28.6322 56.1816 28.6728 56.2083 28.7262C56.235 28.7796 56.2394 28.8414 56.2206 28.898C56.2017 28.9547 56.1611 29.0015 56.1077 29.0283C56.0543 29.055 55.9925 29.0594 55.9359 29.0405C55.3811 28.8263 54.7715 28.7991 54.1998 28.9632C53.6281 29.1273 53.1257 29.4736 52.7691 29.9495C52.7333 29.9964 52.6807 30.0273 52.6224 30.0357C52.5641 30.0441 52.5048 30.0293 52.4573 29.9945C52.4098 29.9598 52.3778 29.9077 52.3682 29.8496C52.3587 29.7915 52.3722 29.732 52.4061 29.6837Z" fill="#190D39"></path><path d="M66.6612 29.2201C66.2519 28.6141 65.6591 28.1552 64.9698 27.9109C64.6938 27.8296 64.4028 27.8133 64.1195 27.8635C63.8362 27.9137 63.5684 28.0289 63.3372 28.2001C63.3246 28.2096 63.3109 28.2175 63.2964 28.2235C63.2112 28.2955 63.1308 28.3735 63.0564 28.4563C63.0412 28.4922 63.017 28.5235 62.9863 28.5474C62.9555 28.5713 62.9192 28.5869 62.8806 28.5927C62.8421 28.5985 62.8028 28.5944 62.7663 28.5807C62.7299 28.567 62.6975 28.5442 62.6724 28.5145C62.6386 28.4751 62.6191 28.4254 62.6172 28.3735C62.6172 28.0375 63.8544 27.0661 65.1216 27.4885C65.9028 27.7651 66.5746 28.2852 67.038 28.9723C67.0708 29.0223 67.0825 29.0832 67.0704 29.1418C67.0583 29.2004 67.0235 29.2517 66.9735 29.2846C66.9235 29.3175 66.8625 29.3291 66.804 29.317C66.7454 29.3049 66.694 29.2701 66.6612 29.2201Z" fill="#190D39"></path><path d="M56.9157 37.44C56.7447 36.8676 56.2005 35.6544 56.5335 35.1C56.8041 34.6938 57.6051 34.8174 57.8409 34.6992C58.5171 34.4034 58.6161 33.4866 58.6161 32.9658C58.6332 32.7808 58.6298 32.5945 58.6059 32.4102C58.5768 32.3602 58.568 32.301 58.5814 32.2447C58.5949 32.1884 58.6295 32.1394 58.6781 32.108C58.7267 32.0766 58.7855 32.0651 58.8423 32.0759C58.8992 32.0867 58.9497 32.119 58.9833 32.166C59.0541 32.2722 59.0769 32.3946 59.0661 32.9658C59.0541 33.5964 58.9317 34.713 58.0317 35.1066C57.7875 35.2266 56.9967 35.2158 56.9133 35.3406C56.7183 35.6658 57.2367 36.9444 57.3471 37.3104C57.3556 37.3388 57.3585 37.3685 57.3555 37.3979C57.3525 37.4273 57.3438 37.4559 57.3298 37.4819C57.3158 37.508 57.2968 37.531 57.2738 37.5497C57.2509 37.5684 57.2246 37.5824 57.1962 37.5909C57.1679 37.5995 57.1382 37.6023 57.1088 37.5993C57.0793 37.5963 57.0508 37.5876 57.0247 37.5736C56.9987 37.5596 56.9757 37.5406 56.9569 37.5177C56.9382 37.4947 56.9242 37.4684 56.9157 37.44Z" fill="#190D39"></path><path d="M54.3528 33.1459C54.0124 33.1322 53.6783 33.0495 53.3708 32.9027C53.0634 32.7559 52.7889 32.5482 52.5642 32.2921C52.4442 32.1289 52.3164 32.0605 52.3164 31.8865C52.3163 31.8315 52.3363 31.7784 52.3727 31.7371C52.4091 31.6959 52.4593 31.6694 52.5139 31.6627C52.5685 31.656 52.6237 31.6695 52.669 31.7007C52.7143 31.7318 52.7466 31.7785 52.7598 31.8319C52.8204 31.8901 52.8756 31.9537 52.9242 32.0221C53.1771 32.3199 53.5199 32.5273 53.901 32.6131C54.0438 32.6599 54.1914 32.6881 54.3414 32.6965C54.6885 32.6739 55.0275 32.5817 55.3381 32.4253C55.6488 32.2689 55.9249 32.0516 56.1498 31.7863C56.1886 31.7417 56.2435 31.7141 56.3025 31.7096C56.3615 31.7052 56.4199 31.7241 56.4651 31.7624C56.5102 31.8007 56.5384 31.8552 56.5437 31.9141C56.5489 31.9731 56.5307 32.0317 56.493 32.0773C56.2267 32.3904 55.8998 32.6465 55.532 32.8301C55.1642 33.0137 54.7631 33.1212 54.3528 33.1459Z" fill="#190D39"></path><path d="M62.3843 31.7359C62.3524 31.6853 62.342 31.6243 62.3552 31.566C62.3684 31.5078 62.4042 31.4572 62.4548 31.4254C62.5053 31.3935 62.5664 31.3831 62.6246 31.3963C62.6828 31.4095 62.7334 31.4453 62.7653 31.4959C63.5321 32.7229 65.3861 32.3095 66.3791 31.3621C66.4116 31.3329 66.4519 31.3138 66.495 31.3071C66.5382 31.3004 66.5824 31.3064 66.6222 31.3243C66.662 31.3422 66.6958 31.3713 66.7194 31.408C66.743 31.4448 66.7555 31.4876 66.7553 31.5313C66.7543 31.59 66.7306 31.6461 66.6893 31.6879C65.4737 32.8507 63.3083 33.2143 62.3843 31.7359Z" fill="#190D39"></path><path d="M58.9679 40.5534C58.1505 40.5167 57.3755 40.1789 56.7923 39.6048C56.7715 39.5839 56.7549 39.5591 56.7436 39.5318C56.7323 39.5045 56.7265 39.4752 56.7266 39.4456C56.7266 39.4161 56.7324 39.3868 56.7438 39.3595C56.7551 39.3322 56.7717 39.3074 56.7926 39.2865C56.8136 39.2657 56.8384 39.2491 56.8657 39.2378C56.893 39.2265 56.9223 39.2207 56.9518 39.2208C56.9814 39.2208 57.0107 39.2266 57.038 39.238C57.0653 39.2493 57.0901 39.2659 57.1109 39.2868C57.4187 39.5748 57.7769 39.8028 58.1681 39.96C59.0879 40.3002 60.0203 40.0602 61.1795 39.18C61.2152 39.1534 61.258 39.1379 61.3024 39.1354C61.3469 39.1329 61.3911 39.1435 61.4296 39.166C61.468 39.1884 61.499 39.2217 61.5187 39.2617C61.5383 39.3016 61.5458 39.3465 61.5401 39.3906C61.5361 39.4201 61.5262 39.4484 61.5112 39.4741C61.4962 39.4997 61.4762 39.5221 61.4525 39.54C60.7561 40.1383 59.8841 40.494 58.9679 40.5534Z" fill="#190D39"></path></svg>