<?xml version="1.0" encoding="utf-8"?>
<svg width="659px" height="667px" viewBox="0 0 659 667" version="1.1" xmlns:xlink="http://www.w3.org/1999/xlink" xmlns="http://www.w3.org/2000/svg">
  <defs>
    <filter filterUnits="userSpaceOnUse" color-interpolation-filters="sRGB" id="filter_1">
      <feFlood flood-opacity="0" result="BackgroundImageFix" />
      <feColorMatrix in="SourceAlpha" type="matrix" values="0 0 0 0 0 0 0 0 0 0 0 0 0 0 0 0 0 0 127 0" />
      <feOffset dx="0" dy="25" />
      <feGaussianBlur stdDeviation="25" />
      <feColorMatrix type="matrix" values="0 0 0 0 0.13333334 0 0 0 0 0.18039216 0 0 0 0 0.32941177 0 0 0 0.07058824 0" />
      <feBlend mode="normal" in2="BackgroundImageFix" result="effect0_dropShadow" />
      <feBlend mode="normal" in="SourceGraphic" in2="effect0_dropShadow" result="shape" />
    </filter>
    <path d="M86.3316 2.03131L101.593 105.131Q101.601 105.188 101.603 105.247Q101.605 105.305 101.6 105.364Q101.594 105.422 101.583 105.479Q101.571 105.536 101.552 105.592Q101.534 105.647 101.509 105.7Q101.484 105.753 101.454 105.803Q101.423 105.853 101.386 105.898Q101.35 105.944 101.309 105.985Q101.267 106.027 101.221 106.063Q101.175 106.099 101.125 106.129Q101.075 106.16 101.022 106.184Q100.969 106.209 100.913 106.227Q100.858 106.245 100.801 106.256Q100.743 106.268 100.685 106.273Q100.627 106.277 100.568 106.275Q100.51 106.273 100.452 106.264L1.88436 91.0566Q1.85078 91.0514 1.81762 91.044Q1.78446 91.0365 1.75189 91.0268Q1.71931 91.0171 1.68747 91.0052Q1.65563 90.9934 1.62467 90.9793Q1.59371 90.9653 1.56378 90.9492Q1.53384 90.9332 1.50507 90.9151Q1.4763 90.897 1.44882 90.877Q1.42134 90.857 1.39529 90.8352Q1.36923 90.8134 1.34472 90.7898Q1.32021 90.7663 1.29735 90.7411Q1.2745 90.716 1.25341 90.6893Q1.23231 90.6627 1.21308 90.6347Q1.19385 90.6067 1.17656 90.5774Q1.15928 90.5481 1.14402 90.5178Q1.12876 90.4874 1.1156 90.4561Q1.10245 90.4247 1.09145 90.3926Q1.08045 90.3604 1.07166 90.3276Q1.06288 90.2948 1.05634 90.2614Q1.0498 90.2281 1.04555 90.1943Q1.0413 90.1606 1.03934 90.1267Q1.03739 90.0928 1.03775 90.0588Q1.0381 90.0248 1.04077 89.9909Q1.04343 89.957 1.0484 89.9234Q1.05336 89.8898 1.06059 89.8566Q1.06783 89.8234 1.0773 89.7907Q1.08678 89.7581 1.09845 89.7262Q1.11012 89.6943 1.12393 89.6632Q1.13775 89.6322 1.15364 89.6021Q1.16953 89.5721 1.18743 89.5432Q1.20532 89.5143 1.22514 89.4867Q1.24496 89.4591 1.26661 89.4329Q1.28825 89.4067 1.31163 89.3821L84.6183 1.49036Q84.6424 1.46502 84.6681 1.44141Q84.6938 1.41781 84.7211 1.39606Q84.7484 1.37431 84.7772 1.35452Q84.806 1.33473 84.8361 1.317Q84.8661 1.29927 84.8974 1.28368Q84.9286 1.26809 84.9609 1.25472Q84.9931 1.24135 85.0262 1.23027Q85.0594 1.21918 85.0932 1.21044Q85.127 1.20169 85.1613 1.19533Q85.1956 1.18896 85.2303 1.18501Q85.265 1.18106 85.2999 1.17954Q85.3348 1.17802 85.3697 1.17894Q85.4046 1.17986 85.4393 1.18321Q85.4741 1.18657 85.5085 1.19234Q85.543 1.19811 85.5769 1.20627Q85.6109 1.21444 85.6442 1.22495Q85.6775 1.23546 85.71 1.24828Q85.7424 1.26109 85.7739 1.27614Q85.8055 1.29119 85.8358 1.3084Q85.8662 1.32561 85.8953 1.3449Q85.9244 1.36419 85.9521 1.38547Q85.9798 1.40674 86.0059 1.4299Q86.0321 1.45306 86.0565 1.47798Q86.081 1.50291 86.1036 1.52948Q86.1263 1.55605 86.147 1.58414Q86.1678 1.61223 86.1865 1.64169Q86.2052 1.67116 86.2218 1.70187Q86.2385 1.73257 86.2529 1.76436Q86.2674 1.79615 86.2796 1.82887Q86.2917 1.86159 86.3016 1.89508Q86.3115 1.92857 86.319 1.96267Q86.3265 1.99677 86.3316 2.03131Z" transform="matrix(-0.70710677 -0.70710677 0.70710677 -0.70710677 72.613785 147.92743)" id="path_1" />
    <path d="M22.499 0L256.501 0Q257.053 0 257.605 0.027101Q258.157 0.0542021 258.706 0.108339Q259.256 0.162476 259.802 0.243518Q260.349 0.32456 260.89 0.432312Q261.432 0.540064 261.968 0.674267Q262.504 0.808469 263.032 0.968799Q263.561 1.12913 264.081 1.3152Q264.601 1.50127 265.111 1.71263Q265.621 1.924 266.121 2.16014Q266.62 2.39629 267.107 2.65665Q267.594 2.91701 268.068 3.20096Q268.542 3.48491 269.001 3.79176Q269.46 4.09862 269.904 4.42763Q270.347 4.75665 270.774 5.10704Q271.201 5.45743 271.61 5.82834Q272.02 6.19926 272.41 6.5898Q272.801 6.98035 273.172 7.38959Q273.543 7.79884 273.893 8.22579Q274.243 8.65273 274.572 9.09636Q274.901 9.53999 275.208 9.99922Q275.515 10.4585 275.799 10.9322Q276.083 11.4059 276.343 11.893Q276.604 12.3801 276.84 12.8794Q277.076 13.3787 277.287 13.889Q277.499 14.3993 277.685 14.9193Q277.871 15.4393 278.031 15.9679Q278.191 16.4964 278.326 17.0322Q278.46 17.568 278.568 18.1097Q278.675 18.6514 278.756 19.1977Q278.837 19.7441 278.892 20.2937Q278.946 20.8434 278.973 21.395Q279 21.9467 279 22.499L279 28.501Q279 29.0533 278.973 29.605Q278.946 30.1566 278.892 30.7063Q278.837 31.2559 278.756 31.8023Q278.675 32.3486 278.568 32.8903Q278.46 33.432 278.326 33.9678Q278.191 34.5036 278.031 35.0321Q277.871 35.5606 277.685 36.0807Q277.499 36.6007 277.287 37.111Q277.076 37.6213 276.84 38.1206Q276.604 38.6198 276.343 39.1069Q276.083 39.5941 275.799 40.0678Q275.515 40.5415 275.208 41.0008Q274.901 41.46 274.572 41.9036Q274.243 42.3473 273.893 42.7742Q273.543 43.2012 273.172 43.6104Q272.801 44.0196 272.41 44.4102Q272.02 44.8007 271.61 45.1717Q271.201 45.5426 270.774 45.893Q270.347 46.2433 269.904 46.5724Q269.46 46.9014 269.001 47.2082Q268.541 47.5151 268.068 47.799Q267.594 48.083 267.107 48.3433Q266.62 48.6037 266.121 48.8398Q265.621 49.076 265.111 49.2874Q264.601 49.4987 264.081 49.6848Q263.561 49.8709 263.032 50.0312Q262.504 50.1915 261.968 50.3257Q261.432 50.4599 260.89 50.5677Q260.349 50.6754 259.802 50.7565Q259.256 50.8375 258.706 50.8917Q258.157 50.9458 257.605 50.9729Q257.053 51 256.501 51L22.499 51Q21.9467 51 21.395 50.9729Q20.8434 50.9458 20.2937 50.8917Q19.7441 50.8375 19.1977 50.7565Q18.6514 50.6754 18.1097 50.5677Q17.568 50.4599 17.0322 50.3257Q16.4964 50.1915 15.9679 50.0312Q15.4393 49.8709 14.9193 49.6848Q14.3993 49.4987 13.889 49.2874Q13.3787 49.076 12.8794 48.8399Q12.3801 48.6037 11.893 48.3433Q11.4059 48.083 10.9322 47.799Q10.4585 47.5151 9.99922 47.2082Q9.53999 46.9014 9.09636 46.5724Q8.65273 46.2433 8.22579 45.893Q7.79884 45.5426 7.38959 45.1716Q6.98035 44.8007 6.5898 44.4102Q6.19926 44.0196 5.82834 43.6104Q5.45743 43.2012 5.10704 42.7742Q4.75665 42.3473 4.42763 41.9036Q4.09862 41.46 3.79176 41.0008Q3.48491 40.5415 3.20096 40.0678Q2.91701 39.5941 2.65665 39.107Q2.39629 38.6198 2.16014 38.1206Q1.924 37.6213 1.71263 37.111Q1.50127 36.6007 1.3152 36.0807Q1.12913 35.5606 0.968799 35.0321Q0.808469 34.5036 0.674267 33.9678Q0.540064 33.432 0.432312 32.8903Q0.32456 32.3486 0.243518 31.8023Q0.162476 31.2559 0.108339 30.7063Q0.0542021 30.1566 0.027101 29.605Q0 29.0533 0 28.501L0 22.499Q0 21.9467 0.027101 21.395Q0.0542021 20.8434 0.108339 20.2937Q0.162476 19.7441 0.243518 19.1977Q0.32456 18.6514 0.432312 18.1097Q0.540064 17.568 0.674267 17.0322Q0.808469 16.4964 0.968799 15.9679Q1.12913 15.4393 1.3152 14.9193Q1.50127 14.3993 1.71263 13.889Q1.924 13.3787 2.16014 12.8794Q2.39629 12.3801 2.65665 11.893Q2.91701 11.4059 3.20096 10.9322Q3.48491 10.4585 3.79176 9.99922Q4.09862 9.53999 4.42763 9.09636Q4.75665 8.65273 5.10704 8.22579Q5.45743 7.79884 5.82834 7.38959Q6.19926 6.98035 6.5898 6.5898Q6.98035 6.19926 7.38959 5.82834Q7.79884 5.45743 8.22579 5.10704Q8.65273 4.75665 9.09636 4.42763Q9.53999 4.09862 9.99922 3.79176Q10.4585 3.48491 10.9322 3.20096Q11.4059 2.91701 11.893 2.65665Q12.3801 2.39629 12.8794 2.16014Q13.3787 1.924 13.889 1.71263Q14.3993 1.50127 14.9193 1.3152Q15.4393 1.12913 15.9679 0.968799Q16.4964 0.808469 17.0322 0.674267Q17.568 0.540064 18.1097 0.432312Q18.6514 0.32456 19.1977 0.243518Q19.7441 0.162476 20.2937 0.108339Q20.8434 0.0542021 21.395 0.027101Q21.9467 0 22.499 0L22.499 0Z" transform="translate(39 320)" id="path_2" />
    <clipPath id="clip_1">
      <use xlink:href="#path_2" />
    </clipPath>
    <clipPath id="mask_1">
      <use xlink:href="#path_1" />
    </clipPath>
  </defs>
  <g id="Group" transform="translate(0.5 0.5)">
    <g id="Shape-Group" transform="translate(35.620117 21.50586)">
      <g id="Shape">
        <g id="Group-62" transform="translate(0 256)">
          <path d="M0 0L14 0L14 14L0 14L0 0Z" id="Rectangle" fill="#F77A56" fill-opacity="0.31868052" fill-rule="evenodd" stroke="none" />
          <path d="M0 0L10 0L10 10L0 10L0 0Z" transform="translate(301 280)" id="Rectangle" fill="#F77A56" fill-rule="evenodd" stroke="none" />
        </g>
        <path d="M0 0L6 0L6 6L0 6L0 0Z" transform="translate(284 0)" id="Rectangle" fill="#FF5B32" fill-rule="evenodd" stroke="none" />
        <path d="M0 0L7 0L7 7L0 7L0 0Z" transform="translate(541 290)" id="Rectangle" fill="#F2DAD5" fill-rule="evenodd" stroke="none" />
      </g>
      <g id="Group-21" transform="translate(45.995117 61.847168)">
        <path d="M19 13.7406C18.4277 14.6503 17.8808 16.0532 17.5212 15.9984C11.3984 15.0723 5.50853 13.3077 1.2494 8.07423C0.27198 6.86861 -0.274971 4.42997 0.140306 2.94487C0.515069 1.62965 2.61678 -0.129464 3.77146 0.00753845C11.5554 0.982994 15.9816 6.55625 19 13.7406" transform="translate(0.7493805 87.107544)" id="Fill-305" fill="#363636" fill-rule="evenodd" stroke="none" />
        <path d="M8.90976 7.27511C8.04576 8.19417 7.28451 9.20913 6.25238 9.95237C5.96749 10.1562 4.75789 9.66466 4.18344 9.26108C1.73155 7.58679 -0.640951 5.7167 0.157666 2.70779C0.423872 1.68883 1.7082 0.773766 2.75434 0.0505062C3.04857 -0.157281 4.2535 0.318232 4.84195 0.709831C7.33588 2.36014 9.4702 4.21824 8.90976 7.27511" transform="translate(1.7493806 17.107548)" id="Fill-291" fill="#363636" fill-rule="evenodd" stroke="none" />
        <path d="M11.6527 13.6758C10.3405 14.7882 9.22175 16.4267 7.73704 16.8025C6.17915 17.2133 3.29861 16.9929 2.69741 16.0509C-0.251087 11.3658 -1.16073 6.27498 1.89755 1.18911C2.25305 0.592841 3.29861 -0.0735821 3.93118 0.00658908C5.64068 0.217038 7.96707 0.29721 8.8558 1.34445C11.8827 4.88701 12.4996 9.20623 11.6527 13.6758" transform="translate(70.74938 0.10754701)" id="Fill-255" fill="#363636" fill-rule="evenodd" stroke="none" />
      </g>
    </g>
    <path d="M326.903 473.592C448.945 405.624 575.645 79.2354 277.093 12.1545C-21.459 -54.9265 -20.0706 172.151 17.093 290.071C54.2565 407.991 204.861 541.56 326.903 473.592Z" transform="matrix(0.8290376 -0.5591929 0.5591929 0.8290376 0 257.78796)" id="Oval" fill="#E4F1FC" fill-rule="evenodd" stroke="none" />
    <g id="Rectangle-8" transform="matrix(-1 -8.742278E-08 8.742278E-08 -1 227.62012 552.50586)">
      <path d="M86.3316 2.03131L101.593 105.131Q101.601 105.188 101.603 105.247Q101.605 105.305 101.6 105.364Q101.594 105.422 101.583 105.479Q101.571 105.536 101.552 105.592Q101.534 105.647 101.509 105.7Q101.484 105.753 101.454 105.803Q101.423 105.853 101.386 105.898Q101.35 105.944 101.309 105.985Q101.267 106.027 101.221 106.063Q101.175 106.099 101.125 106.129Q101.075 106.16 101.022 106.184Q100.969 106.209 100.913 106.227Q100.858 106.245 100.801 106.256Q100.743 106.268 100.685 106.273Q100.627 106.277 100.568 106.275Q100.51 106.273 100.452 106.264L1.88436 91.0566Q1.85078 91.0514 1.81762 91.044Q1.78446 91.0365 1.75189 91.0268Q1.71931 91.0171 1.68747 91.0052Q1.65563 90.9934 1.62467 90.9793Q1.59371 90.9653 1.56378 90.9492Q1.53384 90.9332 1.50507 90.9151Q1.4763 90.897 1.44882 90.877Q1.42134 90.857 1.39529 90.8352Q1.36923 90.8134 1.34472 90.7898Q1.32021 90.7663 1.29735 90.7411Q1.2745 90.716 1.25341 90.6893Q1.23231 90.6627 1.21308 90.6347Q1.19385 90.6067 1.17656 90.5774Q1.15928 90.5481 1.14402 90.5178Q1.12876 90.4874 1.1156 90.4561Q1.10245 90.4247 1.09145 90.3926Q1.08045 90.3604 1.07166 90.3276Q1.06288 90.2948 1.05634 90.2614Q1.0498 90.2281 1.04555 90.1943Q1.0413 90.1606 1.03934 90.1267Q1.03739 90.0928 1.03775 90.0588Q1.0381 90.0248 1.04077 89.9909Q1.04343 89.957 1.0484 89.9234Q1.05336 89.8898 1.06059 89.8566Q1.06783 89.8234 1.0773 89.7907Q1.08678 89.7581 1.09845 89.7262Q1.11012 89.6943 1.12393 89.6632Q1.13775 89.6322 1.15364 89.6021Q1.16953 89.5721 1.18743 89.5432Q1.20532 89.5143 1.22514 89.4867Q1.24496 89.4591 1.26661 89.4329Q1.28825 89.4067 1.31163 89.3821L84.6183 1.49036Q84.6424 1.46502 84.6681 1.44141Q84.6938 1.41781 84.7211 1.39606Q84.7484 1.37431 84.7772 1.35452Q84.806 1.33473 84.8361 1.317Q84.8661 1.29927 84.8974 1.28368Q84.9286 1.26809 84.9609 1.25472Q84.9931 1.24135 85.0262 1.23027Q85.0594 1.21918 85.0932 1.21044Q85.127 1.20169 85.1613 1.19533Q85.1956 1.18896 85.2303 1.18501Q85.265 1.18106 85.2999 1.17954Q85.3348 1.17802 85.3697 1.17894Q85.4046 1.17986 85.4393 1.18321Q85.4741 1.18657 85.5085 1.19234Q85.543 1.19811 85.5769 1.20627Q85.6109 1.21444 85.6442 1.22495Q85.6775 1.23546 85.71 1.24828Q85.7424 1.26109 85.7739 1.27614Q85.8055 1.29119 85.8358 1.3084Q85.8662 1.32561 85.8953 1.3449Q85.9244 1.36419 85.9521 1.38547Q85.9798 1.40674 86.0059 1.4299Q86.0321 1.45306 86.0565 1.47798Q86.081 1.50291 86.1036 1.52948Q86.1263 1.55605 86.147 1.58414Q86.1678 1.61223 86.1865 1.64169Q86.2052 1.67116 86.2218 1.70187Q86.2385 1.73257 86.2529 1.76436Q86.2674 1.79615 86.2796 1.82887Q86.2917 1.86159 86.3016 1.89508Q86.3115 1.92857 86.319 1.96267Q86.3265 1.99677 86.3316 2.03131Z" transform="matrix(-0.70710677 -0.70710677 0.70710677 -0.70710677 72.613785 147.92743)" id="Rectangle" fill="none" fill-rule="evenodd" stroke="none" />
      <g clip-path="url(#mask_1)">
        <g id="Group-34" transform="matrix(0.81915206 -0.57357645 0.57357645 0.81915206 -45.26445 53.67875)">
          <path d="M0 0L2.33918 0L2.33918 136.927L0 136.927L0 0Z" transform="translate(0.015847072 1.3672354)" id="Rectangle" fill="#0FD8F7" fill-rule="evenodd" stroke="none" />
          <path d="M0 0L2.33918 0L2.33918 136.927L0 136.927L0 0Z" transform="translate(12.223562 1.6446018)" id="Rectangle" fill="#0FD8F7" fill-rule="evenodd" stroke="none" />
          <path d="M0 0L2.33918 0L2.33918 136.927L0 136.927L0 0Z" transform="translate(22.206589 1.1986705)" id="Rectangle-Copy-3" fill="#0FD8F7" fill-rule="evenodd" stroke="none" />
          <path d="M0 0L2.33918 0L2.33918 136.927L0 136.927L0 0Z" transform="translate(34.414303 1.4760369)" id="Rectangle-Copy-4" fill="#0FD8F7" fill-rule="evenodd" stroke="none" />
          <path d="M0 0L2.33918 0L2.33918 136.927L0 136.927L0 0Z" transform="translate(46.62202 1.7534033)" id="Rectangle-Copy-5" fill="#0FD8F7" fill-rule="evenodd" stroke="none" />
          <path d="M0 0L2.33918 0L2.33918 136.927L0 136.927L0 0Z" transform="translate(56.605045 1.3074719)" id="Rectangle-Copy-6" fill="#0FD8F7" fill-rule="evenodd" stroke="none" />
          <path d="M0 0L2.33918 0L2.33918 136.927L0 136.927L0 0Z" transform="translate(68.81276 1.5848383)" id="Rectangle-Copy-7" fill="#0FD8F7" fill-rule="evenodd" stroke="none" />
          <path d="M0 0L2.33918 0L2.33918 136.927L0 136.927L0 0Z" transform="translate(80.42383 0.07789567)" id="Rectangle-Copy-8" fill="#0FD8F7" fill-rule="evenodd" stroke="none" />
          <path d="M0 0L2.33918 0L2.33918 136.927L0 136.927L0 0Z" transform="translate(91.96157 2.0875416)" id="Rectangle-Copy-9" fill="#0FD8F7" fill-rule="evenodd" stroke="none" />
          <path d="M0 0L2.33918 0L2.33918 136.927L0 136.927L0 0Z" transform="translate(103.21122 1.6936396)" id="Rectangle-Copy-10" fill="#0FD8F7" fill-rule="evenodd" stroke="none" />
          <path d="M0 0L2.33918 0L2.33918 136.927L0 136.927L0 0Z" transform="translate(114.82229 0.18669708)" id="Rectangle-Copy-11" fill="#0FD8F7" fill-rule="evenodd" stroke="none" />
          <path d="M0 0L2.33918 0L2.33918 136.927L0 136.927L0 0Z" transform="translate(125.40196 1.5250747)" id="Rectangle-Copy-12" fill="#0FD8F7" fill-rule="evenodd" stroke="none" />
          <path d="M0 0L2.33918 0L2.33918 136.927L0 136.927L0 0Z" transform="translate(137.9711 0.68940026)" id="Rectangle-Copy-13" fill="#0FD8F7" fill-rule="evenodd" stroke="none" />
          <path d="M0 0L2.33918 0L2.33918 136.927L0 136.927L0 0Z" transform="translate(148.70505 1.7181586)" id="Rectangle-Copy-14" fill="#0FD8F7" fill-rule="evenodd" stroke="none" />
        </g>
      </g>
    </g>
  </g>
</svg>